<svg width="368" height="200" viewBox="0 0 368 200" fill="none" xmlns="http://www.w3.org/2000/svg">
<g clip-path="url(#clip0_303_9325)">
<path fill-rule="evenodd" clip-rule="evenodd" d="M89.9571 3.0268C90.2269 2.64037 90.6169 2.78089 90.3739 1.10871C89.4654 -1.63001 90.6225 1.62301 90.5152 1.15789C90.3809 1.96588 89.885 1.57243 89.5812 1.52887C89.6745 1.89141 89.8002 2.47597 89.9571 3.0268Z" fill="#141414"/>
<path fill-rule="evenodd" clip-rule="evenodd" d="M32.2613 170.606C30.1603 167.114 28.4464 163.274 26.765 159.848C25.8706 161.228 23.3075 176.327 19.7667 200H27.4276C29.7477 182.622 31.4729 171.845 32.2613 170.606Z" fill="#141414"/>
<path fill-rule="evenodd" clip-rule="evenodd" d="M25.701 160.59C24.0027 157.348 22.4244 154.261 20.8278 151.916C19.9589 153.173 16.8575 171.68 12.5932 200H19.518C22.6166 176.754 24.8688 161.921 25.701 160.59Z" fill="#141414"/>
<path fill-rule="evenodd" clip-rule="evenodd" d="M20.0634 150.974C18.6321 148.935 17.2658 146.999 15.9165 145.158C14.3184 154.397 12.7006 163.514 11.1478 172.575C9.56815 181.776 8.00968 190.931 6.49219 199.98L6.59392 199.999H12.8193C15.1393 183.896 17.6035 167.499 20.0634 150.973V150.974Z" fill="#141414"/>
<path fill-rule="evenodd" clip-rule="evenodd" d="M15.3555 144.2C14.1602 142.293 13.0199 140.597 11.9348 138.999C9.87758 149.142 7.82317 159.173 5.84507 169.013C3.84859 178.952 1.88885 188.777 -0.000244141 198.411V198.806C1.79418 199.144 3.63806 199.48 5.53139 199.786C7.07573 190.665 8.70908 181.401 10.3566 172.056C11.9758 162.869 13.6996 153.593 15.3555 144.2Z" fill="#141414"/>
<path fill-rule="evenodd" clip-rule="evenodd" d="M11.3951 138.291C10.3721 136.763 9.56673 135.222 8.85462 133.585C6.3509 144.491 3.8175 155.301 1.47345 165.941L-0.000244141 172.631V194.188C1.67267 185.772 3.40917 177.234 5.16403 168.608C7.18735 158.651 9.27991 148.504 11.3965 138.292L11.3951 138.291Z" fill="#141414"/>
<path fill-rule="evenodd" clip-rule="evenodd" d="M8.33324 132.967C7.4657 131.595 6.68717 130.292 6.00049 128.858C3.98423 137.03 1.97363 145.133 -0.000244141 153.155V169.339L0.847516 165.581C3.25374 154.907 5.77018 143.995 8.33324 132.968V132.967Z" fill="#141414"/>
<path fill-rule="evenodd" clip-rule="evenodd" d="M5.61617 128.261C4.92948 127.128 4.46039 125.797 3.99412 124.474C2.64759 129.515 1.31661 134.528 -0.000244141 139.506V150.829C1.85918 143.388 3.74686 135.86 5.61617 128.262V128.261Z" fill="#141414"/>
<path fill-rule="evenodd" clip-rule="evenodd" d="M3.49253 124.118C3.02767 122.967 2.60803 121.787 2.3099 120.647L-0.000244141 128.865V137.233C1.15271 132.885 2.31697 128.511 3.49253 124.118Z" fill="#141414"/>
<path fill-rule="evenodd" clip-rule="evenodd" d="M2.12057 119.744C1.74756 118.634 1.45225 117.571 1.1951 116.62L-0.000244141 120.702V127.267L2.12057 119.744Z" fill="#141414"/>
<path fill-rule="evenodd" clip-rule="evenodd" d="M1.11315 116.027C0.898382 115.021 0.802302 114.009 0.666661 113.032L-0.000244141 115.246V119.804L1.11315 116.027Z" fill="#141414"/>
<path fill-rule="evenodd" clip-rule="evenodd" d="M0.611556 112.663C0.51689 111.7 0.580472 110.62 0.679377 109.594L-0.000244141 111.785V114.684L0.611556 112.663Z" fill="#141414"/>
<path fill-rule="evenodd" clip-rule="evenodd" d="M0.718939 108.89C0.72883 108.075 0.899795 107.124 1.07076 106.116L-0.000244141 109.553V111.199L0.718939 108.89Z" fill="#141414"/>
<path fill-rule="evenodd" clip-rule="evenodd" d="M1.08772 105.859C1.24879 105 1.52007 104.174 1.83233 103.237L0.0011692 109.13V109.326L1.08913 105.859H1.08772Z" fill="#141414"/>
<path fill-rule="evenodd" clip-rule="evenodd" d="M2.01036 102.683C2.38903 101.868 2.80726 100.976 3.09973 100.279C2.0697 103.616 1.03402 106.954 -0.000244141 110.284V109.149C0.675138 106.994 1.34769 104.842 2.01036 102.683Z" fill="#141414"/>
<path fill-rule="evenodd" clip-rule="evenodd" d="M3.42188 99.7478C3.86554 98.9735 4.45615 98.1023 5.04393 97.2803C3.35971 102.79 1.67126 108.297 -0.00165749 113.789V110.838C1.14282 107.142 2.28871 103.439 3.42047 99.7478H3.42188Z" fill="#141414"/>
<path fill-rule="evenodd" clip-rule="evenodd" d="M91.2329 200C87.1594 196.043 83.288 192.361 79.6144 188.604C77.3537 192.318 74.9898 196.15 72.6316 200H91.2329Z" fill="#141414"/>
<path fill-rule="evenodd" clip-rule="evenodd" d="M77.5176 186.705C73.3127 182.288 69.4116 178.626 65.7408 175.243C61.5938 180.957 57.7506 186.503 53.6955 192.651C55.5083 194.871 57.3592 197.364 59.2964 200.001H69.2039C71.9958 195.439 74.7652 191.028 77.5176 186.705Z" fill="#141414"/>
<path fill-rule="evenodd" clip-rule="evenodd" d="M64.0212 173.432C60.3843 170.186 57.1812 167.1 54.0713 164.131C50.4359 169.003 46.7057 174.199 43.0688 179.325C45.8452 182.873 48.9099 186.502 52.0621 190.511C56.0692 184.717 59.9068 179.101 64.0212 173.432Z" fill="#141414"/>
<path fill-rule="evenodd" clip-rule="evenodd" d="M52.5652 162.765C49.6969 160.254 46.9473 157.705 44.373 155.337C41.1501 159.605 37.8071 163.75 34.4202 168.172C36.7784 171.083 39.1833 174.154 41.7463 177.61C45.3564 172.634 49.006 167.501 52.5666 162.765H52.5652Z" fill="#141414"/>
<path fill-rule="evenodd" clip-rule="evenodd" d="M35.4376 146.627C33.4637 144.672 31.5209 142.928 29.6445 141.242C26.984 144.391 24.0776 147.855 21.4255 151.203C22.9289 153.224 24.6738 155.382 26.4131 157.841C29.434 153.887 32.3842 150.439 35.4376 146.627Z" fill="#141414"/>
<path fill-rule="evenodd" clip-rule="evenodd" d="M28.5537 140.663C26.8766 139.022 25.1797 137.532 23.7046 135.868C21.3252 138.674 18.8299 141.566 16.5113 144.373C17.7759 146.268 19.186 148.168 20.6583 150.193C23.2312 147.04 25.9737 143.75 28.5537 140.663Z" fill="#141414"/>
<path fill-rule="evenodd" clip-rule="evenodd" d="M22.6364 134.91C21.2729 133.402 19.9659 132.029 18.7141 130.665C16.5396 133.139 14.2972 135.755 12.2358 138.193C13.2347 139.757 14.4145 141.342 15.6508 143.087C17.968 140.31 20.4195 137.529 22.6378 134.91H22.6364Z" fill="#141414"/>
<path fill-rule="evenodd" clip-rule="evenodd" d="M17.9271 129.905C16.736 128.736 15.6763 127.519 14.5445 126.39C12.6611 128.511 10.6745 130.683 8.78821 132.804C9.58228 134.331 10.5106 135.832 11.364 137.446C13.5512 134.99 15.8331 132.386 17.9271 129.905Z" fill="#141414"/>
<path fill-rule="evenodd" clip-rule="evenodd" d="M14.1051 125.8C13.109 124.727 12.2019 123.48 11.4205 122.37C9.66705 124.261 8.01816 126.125 6.14461 128.138C6.91466 129.496 7.69318 130.779 8.51692 132.173C10.358 130.118 12.2612 127.987 14.1065 125.8H14.1051Z" fill="#141414"/>
<path fill-rule="evenodd" clip-rule="evenodd" d="M10.9175 121.496C10.0697 120.508 9.34208 119.571 8.58192 118.604C6.95563 120.368 5.35054 122.182 3.94608 123.727C4.41376 124.949 5.04958 126.095 5.5653 127.408C7.3131 125.438 9.1259 123.41 10.9189 121.496H10.9175Z" fill="#141414"/>
<path fill-rule="evenodd" clip-rule="evenodd" d="M8.27814 118.299C7.60417 117.337 7.05454 116.293 6.46534 115.448C5.1711 116.794 3.86413 118.284 2.58966 119.723C2.96833 120.84 3.30744 122.027 3.77088 123.178C5.25728 121.541 6.73663 119.902 8.27814 118.299Z" fill="#141414"/>
<path fill-rule="evenodd" clip-rule="evenodd" d="M6.21525 114.876C5.63171 114.068 5.28413 113.135 4.93937 112.268C3.81609 113.441 2.64477 114.67 1.54692 115.868C1.76168 116.894 2.09655 117.904 2.30849 119.114C3.58013 117.738 4.96763 116.19 6.21667 114.876H6.21525Z" fill="#141414"/>
<path fill-rule="evenodd" clip-rule="evenodd" d="M4.68646 111.893C4.42365 110.989 4.11846 110.229 3.85565 109.378C2.85812 110.417 1.9708 111.436 0.923815 112.535C1.06228 113.468 1.19792 114.474 1.41269 115.445C2.55152 114.192 3.64371 113.004 4.68646 111.894V111.893Z" fill="#141414"/>
<path fill-rule="evenodd" clip-rule="evenodd" d="M3.73273 108.769C3.58578 107.936 3.39928 107.198 3.3696 106.317C2.45685 107.305 1.65995 108.169 0.901208 108.973C0.802302 110.013 0.826322 110.923 0.881426 111.942C1.76875 110.975 2.81291 109.803 3.73273 108.77V108.769Z" fill="#141414"/>
<path fill-rule="evenodd" clip-rule="evenodd" d="M17.1754 85.8687C18.3283 85.249 19.4106 84.6659 20.5975 84.1909C20.5961 84.3609 20.6314 84.4635 20.7388 84.4523C19.4785 85.0425 18.1432 85.8238 17.0948 86.3844C17.0991 86.1554 17.0991 86.0893 17.1754 85.8687Z" fill="#141414"/>
<path fill-rule="evenodd" clip-rule="evenodd" d="M3.22831 103.325C3.38373 102.533 3.49677 101.773 3.68045 101.105C3.21418 101.566 2.58967 102.241 2.07818 102.82C1.80407 103.716 1.53279 104.593 1.25444 105.501C2.00612 104.704 2.56141 104.066 3.2269 103.325H3.22831Z" fill="#141414"/>
<path fill-rule="evenodd" clip-rule="evenodd" d="M3.8938 100.504C4.15378 99.7702 4.44626 99.0255 4.73874 98.3088C4.27388 98.8442 3.92347 99.3079 3.45721 99.825C2.97116 100.685 2.5939 101.503 2.21241 102.404C2.80443 101.707 3.27352 101.164 3.89521 100.504H3.8938Z" fill="#141414"/>
<path fill-rule="evenodd" clip-rule="evenodd" d="M9.40425 91.8295C10.0768 91.1283 10.7819 90.4834 11.5208 89.9044C11.3329 90.1658 11.1436 90.4398 10.9924 90.6604C10.1757 91.3869 9.39577 92.0614 8.64833 92.7556C8.91255 92.4647 9.06514 92.2469 9.40425 91.8295Z" fill="#141414"/>
<path fill-rule="evenodd" clip-rule="evenodd" d="M133.109 193.455C125.993 188.664 119.831 184.127 113.4 179.956C109.566 186.462 105.58 192.894 101.554 200.001H129.607C130.764 197.795 131.931 195.613 133.109 193.455Z" fill="#141414"/>
<path fill-rule="evenodd" clip-rule="evenodd" d="M110.518 178.108C104.862 174.122 99.5721 170.304 94.6762 166.805C90.5703 172.916 86.5038 179.005 82.4544 185.47C87.2075 189.87 92.0722 194.768 97.6321 199.525C101.895 192.034 106.326 185.042 110.518 178.108Z" fill="#141414"/>
<path fill-rule="evenodd" clip-rule="evenodd" d="M92.3336 165.174C87.6427 162.459 83.4915 159.464 79.4547 156.676C75.7302 161.662 71.8828 166.889 68.1639 172.343C71.9506 175.891 75.8348 179.512 80.188 183.666C84.3364 177.16 88.2135 171.03 92.3336 165.174Z" fill="#141414"/>
<path fill-rule="evenodd" clip-rule="evenodd" d="M77.6165 155.194C73.7281 152.69 70.183 150.152 66.768 148.02C63.3501 152.288 59.7132 157.126 56.2416 162.061C59.4207 164.853 62.8089 167.578 66.4656 170.706C70.0446 165.495 73.8666 160.317 77.6165 155.194Z" fill="#141414"/>
<path fill-rule="evenodd" clip-rule="evenodd" d="M65.1403 146.981C61.8877 145.051 58.9488 142.997 56.0339 141.319C52.7926 145.129 49.6856 149.09 46.3751 153.346C48.9777 155.614 51.8417 157.927 54.7156 160.497C58.1519 155.991 61.7139 151.217 65.1403 146.981Z" fill="#141414"/>
<path fill-rule="evenodd" clip-rule="evenodd" d="M26.375 82.0184C25.6191 81.9411 24.9352 81.8596 24.3248 81.7416C23.073 82.9739 21.9243 84.1234 20.6978 85.2925C21.3096 85.3768 21.8861 85.5764 22.5361 85.7281C23.7992 84.5365 25.0186 83.2971 26.375 82.0184Z" fill="#141414"/>
<path fill-rule="evenodd" clip-rule="evenodd" d="M45.841 134.445C43.5393 133.069 41.4552 131.612 39.3132 130.274C36.6597 133.427 33.9271 136.596 31.2454 139.818C33.1571 141.357 35.1394 143.06 37.273 144.772C40.0974 141.298 42.9304 137.9 45.841 134.445Z" fill="#141414"/>
<path fill-rule="evenodd" clip-rule="evenodd" d="M38.1179 129.846C36.209 128.506 34.2832 127.301 32.452 126.068C30.173 128.695 27.7893 131.442 25.5018 134.216C27.0589 135.769 28.7134 137.24 30.4344 138.84C32.9621 135.919 35.5365 132.877 38.1179 129.846Z" fill="#141414"/>
<path fill-rule="evenodd" clip-rule="evenodd" d="M31.3118 125.339C29.5922 124.295 28.2076 123.074 26.6788 122.079C24.5071 124.502 22.3156 126.899 20.2612 129.289C21.5131 130.599 22.902 131.878 24.3912 133.312C26.7579 130.429 29.0681 127.835 31.3104 125.339H31.3118Z" fill="#141414"/>
<path fill-rule="evenodd" clip-rule="evenodd" d="M25.8141 121.414C24.3814 120.411 23.08 119.394 21.7123 118.608C19.8147 120.663 17.8211 122.801 15.8048 125.206C16.8956 126.338 18.0387 127.444 19.3146 128.731C21.4099 126.359 23.6424 123.782 25.8141 121.414Z" fill="#141414"/>
<path fill-rule="evenodd" clip-rule="evenodd" d="M21.2291 118.177C20.0309 117.226 18.8808 116.425 17.8946 115.503C16.1567 117.384 14.3636 119.335 12.6328 121.167C13.5357 122.232 14.4456 123.41 15.5251 124.564C17.417 122.35 19.3301 120.264 21.2291 118.175V118.177Z" fill="#141414"/>
<path fill-rule="evenodd" clip-rule="evenodd" d="M17.1895 114.872C16.1369 114.186 15.2877 113.271 14.4428 112.486C12.7854 114.211 11.1125 116.027 9.465 117.875C10.3481 118.676 11.0348 119.745 11.8472 120.719C13.5795 118.798 15.453 116.769 17.1895 114.873V114.872Z" fill="#141414"/>
<path fill-rule="evenodd" clip-rule="evenodd" d="M13.9793 112.239C13.0623 111.571 12.4633 110.682 11.7116 109.919C10.293 111.394 8.82494 112.965 7.4657 114.463C8.13543 115.3 8.72745 116.236 9.40284 117.203C10.9274 115.544 12.4406 113.88 13.9793 112.239Z" fill="#141414"/>
<path fill-rule="evenodd" clip-rule="evenodd" d="M7.54765 104.863C7.24104 104.132 6.96976 103.483 6.73663 102.812C5.76312 103.841 4.90264 104.752 3.99977 105.716C4.14672 106.497 4.3742 107.216 4.44343 108.131C5.54835 106.992 6.53458 105.918 7.54906 104.864L7.54765 104.863Z" fill="#141414"/>
<path fill-rule="evenodd" clip-rule="evenodd" d="M6.48512 102.576C6.40741 101.795 6.17287 101.26 6.13048 100.606C5.39434 101.374 4.61581 102.203 3.87402 103.011C3.83587 103.755 3.90793 104.534 3.98282 105.276C4.80797 104.372 5.62889 103.453 6.48512 102.576Z" fill="#141414"/>
<path fill-rule="evenodd" clip-rule="evenodd" d="M6.24493 98.0405C6.30568 97.5543 6.48371 96.8376 6.61653 96.2994C6.11917 96.8489 5.57943 97.4686 5.11882 97.9744C4.75287 98.7346 4.49713 99.4569 4.2753 100.188C4.9309 99.5201 5.55259 98.7866 6.24351 98.0419L6.24493 98.0405Z" fill="#141414"/>
<path fill-rule="evenodd" clip-rule="evenodd" d="M7.49961 94.3673C7.77372 93.8951 8.1976 93.1869 8.76843 92.4829C8.46465 92.8806 8.08457 93.3092 7.92914 93.6155C7.24528 94.4347 6.7451 95.0867 6.20395 95.8245C6.58827 95.3678 7.0828 94.8366 7.50102 94.3673H7.49961Z" fill="#141414"/>
<path fill-rule="evenodd" clip-rule="evenodd" d="M11.3541 89.4871C11.8755 88.9123 12.4279 88.4022 12.9408 87.9456C12.6074 88.377 12.3092 88.7859 11.9772 89.14C11.3484 89.7231 10.7169 90.3541 10.1602 90.8585C10.6095 90.3569 10.9443 89.9775 11.3555 89.4871H11.3541Z" fill="#141414"/>
<path fill-rule="evenodd" clip-rule="evenodd" d="M9.99627 92.3971C10.0839 91.9587 10.2817 91.4866 10.3693 91.0439C9.84367 91.6636 9.27991 92.2861 8.75288 92.8468C8.55507 93.3597 8.27814 93.9204 8.07326 94.474C8.67941 93.829 9.35762 93.1391 9.99627 92.3971Z" fill="#141414"/>
<path fill-rule="evenodd" clip-rule="evenodd" d="M250.755 126.113C239.152 123.671 228.49 121.264 218.448 118.974C214.578 125.214 210.627 131.174 206.928 137.569C216.669 140.279 227.416 143.773 239.316 147.33C243.187 139.966 246.94 132.999 250.756 126.113H250.755Z" fill="#141414"/>
<path fill-rule="evenodd" clip-rule="evenodd" d="M183.839 119.066C175.739 117.271 168.612 115.5 161.519 114.161C158.041 118.871 154.253 123.75 150.476 128.865C157.396 130.967 164.66 133.224 172.467 135.721C176.104 130.111 180.063 124.35 183.839 119.065V119.066Z" fill="#141414"/>
<path fill-rule="evenodd" clip-rule="evenodd" d="M174.309 82.4062C167.858 82.1477 161.822 81.757 155.998 81.4479C152.721 85.0255 149.514 88.5146 146.431 92.14C152.08 92.6529 158.079 93.3049 164.461 94.238C167.646 90.1517 170.825 86.1946 174.309 82.4062Z" fill="#141414"/>
<path fill-rule="evenodd" clip-rule="evenodd" d="M208.587 200C200.317 195.614 192.579 191.466 185.291 187.468C183.208 191.562 181.121 195.736 179.058 200H208.586H208.587Z" fill="#141414"/>
<path fill-rule="evenodd" clip-rule="evenodd" d="M180.34 184.901C170.845 179.852 162.479 174.985 154.294 170.629C150 178.057 145.601 186.045 141.224 194.018C143.903 195.999 146.63 197.986 149.426 200H172.97C175.464 194.84 177.915 189.825 180.34 184.901Z" fill="#141414"/>
<path fill-rule="evenodd" clip-rule="evenodd" d="M150.507 168.674C143.096 165.037 136.255 161.659 129.97 158.311C125.92 164.458 121.607 171.057 117.711 177.865C123.834 182.106 130.419 186.458 137.661 191.146C141.844 183.294 146.212 175.999 150.507 168.674Z" fill="#141414"/>
<path fill-rule="evenodd" clip-rule="evenodd" d="M126.529 157.378C120.407 154.247 114.828 151.509 109.537 148.894C105.891 154.077 102.043 159.439 98.1761 164.893C103.256 168.352 108.817 172.166 114.674 176.178C118.692 169.41 122.568 163.424 126.529 157.376V157.378Z" fill="#141414"/>
<path fill-rule="evenodd" clip-rule="evenodd" d="M106.275 146.988C101.386 144.734 96.7702 142.536 92.3986 140.349C88.9101 144.819 85.406 149.537 81.8977 154.383C86.0362 157.248 90.3668 159.986 95.0945 162.719C98.7582 157.536 102.546 152.233 106.275 146.989V146.988Z" fill="#141414"/>
<path fill-rule="evenodd" clip-rule="evenodd" d="M89.8709 139.069C85.8977 136.824 82.0941 135.167 78.3201 133.526C75.0365 137.705 71.6666 141.975 68.2035 146.291C71.7726 148.293 75.5041 150.617 79.2654 153.199C82.7497 148.422 86.3894 143.635 89.8709 139.069Z" fill="#141414"/>
<path fill-rule="evenodd" clip-rule="evenodd" d="M76.6684 133.066C73.3155 131.443 70.005 129.917 66.7821 128.567C63.928 132.167 60.9085 135.754 57.9286 139.343C60.8548 141.155 63.9534 143.105 67.0958 145.196C70.3286 141.087 73.5924 136.976 76.667 133.066H76.6684Z" fill="#141414"/>
<path fill-rule="evenodd" clip-rule="evenodd" d="M55.3684 123.192C52.705 122.225 50.3793 121.142 48.0692 120.075C45.5838 122.874 42.9996 125.814 40.6188 128.584C42.717 129.937 44.7573 131.394 47.261 132.677C49.8862 129.52 52.5991 126.33 55.3684 123.191V123.192Z" fill="#141414"/>
<path fill-rule="evenodd" clip-rule="evenodd" d="M46.8414 119.575C44.5976 118.513 42.5715 117.455 40.5778 116.672C38.2634 119.183 36.1214 121.628 33.7265 124.343C35.552 125.53 37.4312 126.677 39.374 127.991C41.9187 125.14 44.3094 122.333 46.8414 119.575Z" fill="#141414"/>
<path fill-rule="evenodd" clip-rule="evenodd" d="M39.5845 116.281C37.7661 115.426 36.1158 114.537 34.4033 113.796C32.2288 116.123 30.0684 118.406 28.1341 120.71C29.5456 121.75 31.2058 122.747 32.842 123.816C35.1649 121.246 37.3874 118.756 39.5831 116.281H39.5845Z" fill="#141414"/>
<path fill-rule="evenodd" clip-rule="evenodd" d="M33.1557 113.471C31.4969 112.726 30.0091 112.025 28.5679 111.221C26.8441 113.083 24.7982 115.271 23.0475 117.273C24.2966 118.177 25.7152 119.076 27.1493 120.095C29.0878 117.845 31.1705 115.629 33.1557 113.471Z" fill="#141414"/>
<path fill-rule="evenodd" clip-rule="evenodd" d="M27.771 110.815C26.3863 110.2 25.0059 109.591 23.7907 108.971C22.1009 110.764 20.476 112.538 18.796 114.29C19.86 115.094 21.0878 115.836 22.2464 116.828C24.0762 114.762 25.8522 112.789 27.771 110.816V110.815Z" fill="#141414"/>
<path fill-rule="evenodd" clip-rule="evenodd" d="M23.4361 108.629C22.228 108.054 21.1825 107.412 20.0281 106.892C18.5657 108.39 17.0171 110.038 15.4573 111.657C16.4209 112.379 17.352 113.194 18.4046 114.024C20.0436 112.222 21.7462 110.458 23.4361 108.629Z" fill="#141414"/>
<path fill-rule="evenodd" clip-rule="evenodd" d="M19.5293 106.386C18.6109 105.707 17.6996 105.069 16.7911 104.59C15.2934 106.161 13.9384 107.589 12.5735 109.045C13.287 109.812 14.0825 110.524 14.9218 111.283C16.4816 109.608 18.0288 108.012 19.5293 106.385V106.386Z" fill="#141414"/>
<path fill-rule="evenodd" clip-rule="evenodd" d="M16.2626 104.247C15.4361 103.798 14.6519 103.325 13.9836 102.735C12.7148 104.077 11.5561 105.291 10.1941 106.744C10.7819 107.398 11.3739 108.036 12.045 108.695C13.4085 107.278 14.7621 105.884 16.2626 104.247Z" fill="#141414"/>
<path fill-rule="evenodd" clip-rule="evenodd" d="M142.798 99.3121C137.398 98.5702 132.252 97.9364 127.257 97.1552C124.142 100.892 121.003 104.494 117.7 108.245C122.46 109.248 127.527 110.195 132.924 111.527C136.239 107.348 139.562 103.325 142.799 99.3121H142.798Z" fill="#141414"/>
<path fill-rule="evenodd" clip-rule="evenodd" d="M42.5842 80.075C41.1147 80.0862 39.7216 80.0891 38.4047 80.1115C36.8618 81.6573 35.2708 83.165 33.783 84.6658C35.0688 84.6433 36.1836 84.8583 37.5909 84.9089C39.2157 83.2859 40.8675 81.6671 42.5856 80.0736L42.5842 80.075Z" fill="#141414"/>
<path fill-rule="evenodd" clip-rule="evenodd" d="M42.3525 75.2734C41.0201 75.435 39.7569 75.5573 38.5333 75.6571C37.0356 77.0622 35.6043 78.4126 34.2027 79.7392C35.3288 79.7462 36.4916 79.7321 37.6912 79.6843C39.1946 78.2539 40.7926 76.7447 42.3525 75.2734Z" fill="#141414"/>
<path fill-rule="evenodd" clip-rule="evenodd" d="M298.267 200C294.33 198.34 290.482 196.706 286.729 195.092C286.099 196.703 285.48 198.34 284.87 200H298.269H298.267Z" fill="#141414"/>
<path fill-rule="evenodd" clip-rule="evenodd" d="M139.9 64.0502C135.243 64.2933 130.821 64.5069 126.609 64.7064C124.012 67.2807 121.441 69.8916 118.791 72.3844C123.004 72.4097 127.22 72.3507 131.756 72.2888C134.387 69.5009 137.172 66.7748 139.899 64.0502H139.9Z" fill="#141414"/>
<path fill-rule="evenodd" clip-rule="evenodd" d="M230.329 171.38C218.478 166.538 207.609 162.256 197.267 158.298C193.237 165.74 188.923 173.737 184.99 182.304C195.143 187.608 205.778 192.992 217.668 198.754C221.688 189.444 226.03 180.22 230.328 171.38H230.329Z" fill="#141414"/>
<path fill-rule="evenodd" clip-rule="evenodd" d="M163.228 144.996C155.729 142.211 148.591 139.734 141.973 137.296C138.118 142.806 134.19 148.647 130.37 154.553C136.696 157.788 143.663 161.073 150.782 164.397C154.931 157.891 159.071 151.193 163.226 144.998L163.228 144.996Z" fill="#141414"/>
<path fill-rule="evenodd" clip-rule="evenodd" d="M117.723 129.374C112.541 127.621 107.814 126.021 103.312 124.372C100.048 128.388 96.6332 132.752 93.3566 137.237C97.6434 139.305 102.336 141.5 107.073 143.768C110.498 138.786 114.187 133.902 117.724 129.374H117.723Z" fill="#141414"/>
<path fill-rule="evenodd" clip-rule="evenodd" d="M100.741 123.576C96.4495 122.137 92.4297 120.865 88.5766 119.703C85.3495 123.51 82.217 127.374 78.9898 131.217C82.655 132.781 86.3894 134.352 90.429 136.307C93.9288 131.818 97.2817 127.496 100.741 123.576Z" fill="#141414"/>
<path fill-rule="evenodd" clip-rule="evenodd" d="M86.9164 119.28C83.3445 118.129 79.8786 116.997 76.4777 115.846C73.6447 119.201 70.8104 122.499 67.9139 125.921C71.0463 127.322 74.354 128.894 77.7196 130.409C80.8705 126.614 83.9817 122.863 86.915 119.279L86.9164 119.28Z" fill="#141414"/>
<path fill-rule="evenodd" clip-rule="evenodd" d="M74.2311 115.164C71.1834 114.247 68.1979 113.364 65.4709 112.486C62.6224 115.657 59.9181 118.608 57.2504 121.78C59.8079 122.787 62.5603 123.93 65.574 125.369C68.4169 121.759 71.4123 118.376 74.2311 115.164Z" fill="#141414"/>
<path fill-rule="evenodd" clip-rule="evenodd" d="M64.1343 112.202C61.3635 111.439 58.881 110.565 56.3857 109.848C53.9413 112.486 51.4489 115.322 49.1261 118.069C51.3797 119.054 53.6969 120.148 56.3871 121.06C58.8852 118.209 61.5373 115.122 64.1328 112.202H64.1343Z" fill="#141414"/>
<path fill-rule="evenodd" clip-rule="evenodd" d="M55.0576 109.421C52.6697 108.779 50.4217 108.222 48.2995 107.603C46.06 110.044 43.7555 112.445 41.629 114.835C43.5718 115.573 45.7011 116.443 47.8149 117.487C50.1787 114.72 52.6118 112.088 55.0576 109.421Z" fill="#141414"/>
<path fill-rule="evenodd" clip-rule="evenodd" d="M47.3218 107.296C45.2984 106.74 43.3627 106.15 41.5104 105.503C39.4404 107.731 37.3507 109.951 35.3994 112.116C37.0299 112.898 38.83 113.673 40.6781 114.4C42.8894 112.061 45.0752 109.657 47.3232 107.296H47.3218Z" fill="#141414"/>
<path fill-rule="evenodd" clip-rule="evenodd" d="M40.2401 105.28C38.4485 104.738 36.8576 104.126 35.3203 103.643C33.4171 105.55 31.5435 107.504 29.6912 109.4C31.0546 110.245 32.6173 111.008 34.3086 111.69C36.3023 109.507 38.2408 107.402 40.2415 105.28H40.2401Z" fill="#141414"/>
<path fill-rule="evenodd" clip-rule="evenodd" d="M34.1899 103.55C32.7007 103.037 31.22 102.606 29.7844 102.211C28.2146 103.852 26.4824 105.645 24.89 107.389C26.18 107.92 27.4389 108.525 28.8208 109.115C30.5587 107.292 32.3616 105.46 34.1899 103.549V103.55Z" fill="#141414"/>
<path fill-rule="evenodd" clip-rule="evenodd" d="M29.393 101.912C28.1539 101.406 26.9246 100.938 25.6615 100.522C24.1609 102.075 22.5403 103.812 21.0595 105.38C22.1758 105.94 23.2581 106.538 24.4237 107.114C26.0543 105.388 27.7512 103.691 29.3944 101.913L29.393 101.912Z" fill="#141414"/>
<path fill-rule="evenodd" clip-rule="evenodd" d="M25.0864 100.172C23.9462 99.7478 22.9232 99.3726 21.8663 99.0508C20.4011 100.5 18.9656 101.916 17.5583 103.425C18.5021 103.879 19.4135 104.428 20.3672 105.03C21.9257 103.434 23.4728 101.781 25.085 100.172H25.0864Z" fill="#141414"/>
<path fill-rule="evenodd" clip-rule="evenodd" d="M108.093 95.1893C104.047 94.7762 100.151 94.4629 96.4156 94.054C93.6533 97.0259 90.8359 100.07 88.0256 103.071C91.63 103.675 95.2287 104.399 99.2697 105.217C102.217 101.809 105.133 98.4199 108.093 95.1893Z" fill="#141414"/>
<path fill-rule="evenodd" clip-rule="evenodd" d="M94.7186 93.7842C91.1962 93.3415 87.7543 93.0422 84.6628 92.6305C81.9556 95.4072 79.2781 98.2471 76.7645 101.028C79.8249 101.621 82.9828 102.22 86.3936 102.765C89.1008 99.8518 91.9549 96.7463 94.7186 93.7842Z" fill="#141414"/>
<path fill-rule="evenodd" clip-rule="evenodd" d="M83.1283 92.4604C79.9153 92.1513 77.0344 91.8773 74.2396 91.6089C71.8192 94.0652 69.2802 96.6985 66.8641 99.2208C69.5515 99.7267 72.3307 100.238 75.2569 100.858C77.803 97.9885 80.489 95.1556 83.1283 92.4604Z" fill="#141414"/>
<path fill-rule="evenodd" clip-rule="evenodd" d="M72.9213 91.4571C70.1859 91.1957 67.5889 91.0369 65.1092 90.8079C62.8386 93.0983 60.4239 95.6319 58.2324 97.8858C60.5935 98.2835 63.0689 98.5786 65.6051 98.9777C67.9209 96.5621 70.5024 93.9288 72.9227 91.4571H72.9213Z" fill="#141414"/>
<path fill-rule="evenodd" clip-rule="evenodd" d="M63.8955 90.7194C61.502 90.4538 59.2653 90.1292 57.0201 90.0406C54.9106 92.1386 52.7502 94.3223 50.6181 96.579C52.6301 96.9261 54.7721 97.3238 57.0823 97.7524C59.3048 95.3804 61.6616 93.0056 63.8955 90.7194Z" fill="#141414"/>
<path fill-rule="evenodd" clip-rule="evenodd" d="M55.9802 90.0041C53.8891 89.8046 51.9604 89.6205 50.0035 89.4912C47.9449 91.4796 45.8763 93.5255 44.0875 95.4254C45.8028 95.7682 47.6397 96.1223 49.6686 96.3767C51.7329 94.1747 53.7873 92.095 55.9788 90.0041H55.9802Z" fill="#141414"/>
<path fill-rule="evenodd" clip-rule="evenodd" d="M49.1232 89.4252C47.2483 89.2341 45.4214 89.1119 43.7852 88.9348C41.8933 90.7756 40.031 92.674 38.19 94.5078C39.7315 94.8689 41.4991 95.053 43.1592 95.2975C45.1006 93.3766 47.0236 91.4136 49.1232 89.4266V89.4252Z" fill="#141414"/>
<path fill-rule="evenodd" clip-rule="evenodd" d="M42.8428 88.9644C41.1797 88.8168 39.6312 88.6693 38.1631 88.533C36.5552 90.1967 34.8611 91.8703 33.1543 93.5003C34.5573 93.7364 36.0451 94.0947 37.4623 94.4109C39.2299 92.5743 40.989 90.8305 42.8428 88.9644Z" fill="#141414"/>
<path fill-rule="evenodd" clip-rule="evenodd" d="M37.2631 88.436C35.8417 88.3362 34.5714 88.1704 33.2701 88.1072C31.7201 89.5784 30.1631 91.1087 28.599 92.6614C29.8 92.8834 30.9303 93.1518 32.2104 93.3626C33.8805 91.7284 35.6142 90.0576 37.2631 88.4346V88.436Z" fill="#141414"/>
<path fill-rule="evenodd" clip-rule="evenodd" d="M32.5241 87.975C31.3005 87.8274 30.2267 87.6953 29.085 87.5956C27.6028 89.0415 26.1122 90.4425 24.6512 91.9475C25.6544 92.1906 26.7339 92.3676 27.8543 92.6515C29.3831 91.0875 30.9769 89.5123 32.5255 87.975H32.5241Z" fill="#141414"/>
<path fill-rule="evenodd" clip-rule="evenodd" d="M28.6046 87.569C27.5732 87.3989 26.6915 87.1811 25.7759 87.0083C24.4365 88.3475 23.0546 89.7049 21.8098 90.9625C22.618 91.2028 23.5392 91.4347 24.3898 91.7185C25.7773 90.3316 27.2312 88.9236 28.6046 87.569Z" fill="#141414"/>
<path fill-rule="evenodd" clip-rule="evenodd" d="M25.1924 86.8902C24.3898 86.7314 23.5166 86.6836 22.7904 86.4883C21.5216 87.7389 20.2443 88.9783 19.073 90.1727C19.7271 90.3933 20.3842 90.6336 21.1528 90.8402C22.4329 89.5867 23.8176 88.2883 25.1938 86.8902H25.1924Z" fill="#141414"/>
<path fill-rule="evenodd" clip-rule="evenodd" d="M16.0676 87.6434C15.8204 87.4326 15.6127 87.1052 15.4361 86.8719C14.5925 87.7642 13.749 88.5498 13.0454 89.3395C13.0327 89.7273 13.1683 90.0702 13.3393 90.4018C14.2633 89.487 15.1125 88.613 16.0662 87.6434H16.0676Z" fill="#141414"/>
<path fill-rule="evenodd" clip-rule="evenodd" d="M32.5184 80.3589C34.5361 79.9317 36.5185 79.5032 38.7947 79.0535C39.3302 78.7809 39.8346 78.6558 40.4789 78.4155C38.0628 79.0057 35.8643 79.4736 33.7392 79.9753C33.2419 80.3111 32.9098 80.1566 32.5184 80.3589Z" fill="#141414"/>
<path fill-rule="evenodd" clip-rule="evenodd" d="M46.255 78.1064C49.1119 77.8591 52.0028 77.8661 55.1494 77.7228C55.74 77.668 56.4069 77.6188 57.0964 77.4094C53.8099 77.7228 50.799 77.6525 47.894 77.8268C47.2101 78.0811 46.6888 77.9898 46.255 78.1078V78.1064Z" fill="#141414"/>
<path fill-rule="evenodd" clip-rule="evenodd" d="M103.523 84.0434C99.8787 83.8115 96.263 83.6822 92.9977 83.4714C90.3809 86.0893 87.7953 88.7522 85.2718 91.4628C88.5003 91.7874 91.9408 92.1007 95.3672 92.4984C98.0687 89.5812 100.863 86.6865 103.521 84.0419L103.523 84.0434Z" fill="#141414"/>
<path fill-rule="evenodd" clip-rule="evenodd" d="M91.4095 83.3801C88.1485 83.3281 85.0528 83.262 82.1463 83.137C79.7882 85.5567 77.194 88.0903 74.9093 90.5058C77.6589 90.7756 80.6458 90.985 83.7302 91.2365C86.2283 88.599 88.8606 85.9333 91.4095 83.3815V83.3801Z" fill="#141414"/>
<path fill-rule="evenodd" clip-rule="evenodd" d="M80.7461 83.1257C77.8666 83.0555 75.1608 83.0597 72.4918 82.9965C70.2254 85.1534 67.9647 87.4481 65.769 89.8117C68.2756 89.948 70.8683 90.1292 73.5712 90.4454C75.8206 88.0411 78.3795 85.4963 80.7475 83.1243L80.7461 83.1257Z" fill="#141414"/>
<path fill-rule="evenodd" clip-rule="evenodd" d="M71.2484 82.9192C68.7065 82.8672 66.337 82.9121 64.0368 82.8376C61.8623 84.9216 59.7471 86.9984 57.6913 89.0598C59.8573 89.1554 62.1237 89.428 64.5511 89.6908C66.7637 87.434 69.023 85.1028 71.2484 82.9192Z" fill="#141414"/>
<path fill-rule="evenodd" clip-rule="evenodd" d="M62.9276 82.7856C60.6485 82.8292 58.6648 82.7224 56.5864 82.7421C54.5376 84.7192 52.5454 86.6218 50.6153 88.5582C52.5327 88.731 54.5334 88.894 56.6528 89.0261C58.7072 86.9281 60.7969 84.944 62.9276 82.7856Z" fill="#141414"/>
<path fill-rule="evenodd" clip-rule="evenodd" d="M55.6355 82.6718C53.6008 82.6494 51.757 82.6423 49.9159 82.5763C48.0282 84.3974 46.2027 86.1975 44.3687 88.0341C46.0134 88.3516 47.7979 88.4317 49.6658 88.561C51.6694 86.5727 53.55 84.6518 55.6369 82.6718H55.6355Z" fill="#141414"/>
<path fill-rule="evenodd" clip-rule="evenodd" d="M49.0568 82.5974C47.3387 82.5974 45.5923 82.6747 44.1031 82.6339C42.3793 84.2457 40.6131 85.9713 38.8682 87.6238C40.3673 87.7123 41.9102 87.8374 43.5393 88.0299C45.3013 86.2046 47.2045 84.4157 49.0568 82.5974Z" fill="#141414"/>
<path fill-rule="evenodd" clip-rule="evenodd" d="M112.653 74.3334C108.82 74.3741 105.121 74.4289 101.665 74.5146C99.1425 77.0412 96.6275 79.4708 94.1436 81.9762C97.5431 82.0901 101.119 82.2601 104.709 82.4147C107.401 79.697 110.101 76.9414 112.653 74.3348V74.3334Z" fill="#141414"/>
<path fill-rule="evenodd" clip-rule="evenodd" d="M100.051 74.6285C96.677 74.6398 93.4117 74.7873 90.3739 74.8871C87.986 77.2071 85.5812 79.527 83.2654 81.8316C86.2198 81.8021 89.3862 81.8498 92.5766 81.9974C95.0153 79.4343 97.5078 77.0328 100.051 74.6285Z" fill="#141414"/>
<path fill-rule="evenodd" clip-rule="evenodd" d="M88.838 74.9124C85.8468 74.9714 82.9503 75.0894 80.2149 75.2117C78.0347 77.3068 75.815 79.468 73.5924 81.7402C76.2134 81.7585 78.9616 81.8105 81.7959 81.854C84.1061 79.5158 86.5109 77.1522 88.8366 74.9124H88.838Z" fill="#141414"/>
<path fill-rule="evenodd" clip-rule="evenodd" d="M78.9588 75.2257C76.2375 75.3803 73.8877 75.4281 71.4052 75.5686C69.201 77.6159 67.2003 79.5818 65.0823 81.6278C67.4476 81.639 69.8538 81.6137 72.431 81.6643C74.5137 79.4891 76.7376 77.3279 78.9588 75.2257Z" fill="#141414"/>
<path fill-rule="evenodd" clip-rule="evenodd" d="M70.1322 75.6754C67.8715 75.719 65.6574 75.7822 63.4546 75.9115C61.4144 77.8774 59.4617 79.7435 57.5684 81.58C59.5422 81.6798 61.6659 81.6939 63.9774 81.6433C66.0219 79.5889 68.0679 77.6638 70.1322 75.6754Z" fill="#141414"/>
<path fill-rule="evenodd" clip-rule="evenodd" d="M62.3723 75.9452C60.2176 76.0927 58.3229 76.1742 56.5044 76.2473C54.5786 78.0207 52.609 79.8095 50.8442 81.5435C52.6443 81.573 54.5263 81.632 56.5906 81.58C58.4853 79.7505 60.4041 77.8886 62.3723 75.9452Z" fill="#141414"/>
<path fill-rule="evenodd" clip-rule="evenodd" d="M55.3712 76.4609C53.4553 76.6197 51.7598 76.7083 50.0318 76.8108C48.2698 78.4774 46.4274 80.1959 44.7248 81.9159C46.3511 81.7908 48.0621 81.7684 49.8481 81.6953C51.6185 80.0315 53.379 78.3692 55.3712 76.4623V76.4609Z" fill="#141414"/>
<path fill-rule="evenodd" clip-rule="evenodd" d="M108.175 66.5248C104.667 66.7243 101.347 66.8606 98.1365 67.122C95.7571 69.39 93.4597 71.5849 91.1369 73.9484C94.3047 73.7348 97.4724 73.7123 100.906 73.6126C103.239 71.2448 105.675 68.8813 108.174 66.5248H108.175Z" fill="#141414"/>
<path fill-rule="evenodd" clip-rule="evenodd" d="M96.53 67.3481C93.3876 67.4915 90.4996 67.7613 87.5861 68.0676C85.3721 70.1037 83.2272 72.1792 81.0315 74.2926C83.8616 74.0565 86.6169 74.0495 89.6773 73.954C91.9832 71.7 94.3004 69.4068 96.53 67.3481Z" fill="#141414"/>
<path fill-rule="evenodd" clip-rule="evenodd" d="M86.241 68.1815C83.4745 68.3951 80.91 68.6677 78.3131 68.9488C76.2106 70.8514 74.1802 72.8327 72.0651 74.8197C74.5688 74.5653 77.0273 74.5133 79.7769 74.311C81.8383 72.3198 84.0298 70.2654 86.241 68.1815Z" fill="#141414"/>
<path fill-rule="evenodd" clip-rule="evenodd" d="M77.0485 69.04C74.6013 69.2578 72.2968 69.3899 70.0092 69.6077C68.0339 71.4514 66.1166 73.2739 64.1569 75.1428C66.3582 75.029 68.5299 74.932 70.9672 74.8224C73.0499 72.8608 74.9799 70.9539 77.0485 69.04Z" fill="#141414"/>
<path fill-rule="evenodd" clip-rule="evenodd" d="M68.8718 69.7455C66.8061 69.8818 64.7489 70.0771 62.6323 70.3764C60.7743 72.0725 58.9135 73.8402 57.1063 75.5321C59.0307 75.4393 61.0258 75.2482 63.0774 75.1962C65.0767 73.3259 66.9997 71.5526 68.8718 69.7455Z" fill="#141414"/>
<path fill-rule="evenodd" clip-rule="evenodd" d="M56.3094 71.6958C54.4924 71.9206 52.7517 72.1272 51.1536 72.2677C49.5118 73.7755 47.7598 75.3732 46.0699 76.9597C47.6764 76.8163 49.3309 76.7784 50.9813 76.6758C52.6584 75.0303 54.4712 73.368 56.3094 71.6972V71.6958Z" fill="#141414"/>
<path fill-rule="evenodd" clip-rule="evenodd" d="M50.1731 72.3521C48.616 72.4884 47.131 72.5881 45.6898 72.7694C44.1808 74.2224 42.6591 75.5798 41.208 76.999C42.4825 76.9808 43.9378 76.8768 45.3267 76.8332C46.8781 75.3873 48.5609 73.812 50.1731 72.3521Z" fill="#141414"/>
<path fill-rule="evenodd" clip-rule="evenodd" d="M104.38 60.0931C101.224 60.4655 98.1805 60.8238 95.113 61.1892C92.9399 63.2099 90.8191 65.1687 88.5867 67.2231C91.5962 66.8325 94.4207 66.6624 97.6407 66.3153C99.8407 64.1879 102.127 62.1841 104.38 60.0931Z" fill="#141414"/>
<path fill-rule="evenodd" clip-rule="evenodd" d="M93.7027 61.3367C90.8924 61.6431 88.0694 62.0407 85.3862 62.3766C83.3954 64.2539 81.3212 66.1495 79.2428 68.0929C81.8708 67.802 84.4084 67.5983 87.2442 67.3622C89.4724 65.2755 91.6003 63.3349 93.7027 61.3353V61.3367Z" fill="#141414"/>
<path fill-rule="evenodd" clip-rule="evenodd" d="M84.1018 62.527C81.6066 62.8108 79.1594 63.1467 76.65 63.5233C74.7383 65.3163 72.9114 66.9576 70.9149 68.7941C73.1996 68.5763 75.5324 68.3923 77.9867 68.2293C80.0255 66.2746 82.1336 64.3341 84.1018 62.527Z" fill="#141414"/>
<path fill-rule="evenodd" clip-rule="evenodd" d="M75.5578 63.6932C73.3424 64.0319 71.1283 64.3242 69.0258 64.608C67.1989 66.283 65.2886 67.9636 63.473 69.6133C65.5585 69.3997 67.6115 69.1749 69.7761 68.9304C71.7782 67.1191 73.673 65.4048 75.5578 63.6932Z" fill="#141414"/>
<path fill-rule="evenodd" clip-rule="evenodd" d="M62.2494 66.0498C60.3434 66.3561 58.5786 66.5669 56.9212 66.7805C55.2087 68.3473 53.4807 69.8902 51.8573 71.4682C53.4878 71.2982 55.1565 71.1296 57.0074 70.8935C58.7298 69.293 60.4451 67.722 62.2494 66.0512V66.0498Z" fill="#141414"/>
<path fill-rule="evenodd" clip-rule="evenodd" d="M55.692 67.2512C54.0049 67.476 52.5016 67.7121 50.9685 67.9959C49.3747 69.4152 47.8106 70.8204 46.1363 72.3323C47.5747 72.1441 49.1303 72.026 50.6859 71.8967C52.3151 70.3398 53.971 68.7983 55.6934 67.2498L55.692 67.2512Z" fill="#141414"/>
<path fill-rule="evenodd" clip-rule="evenodd" d="M111.152 52.6274C107.825 53.1487 104.683 53.6138 101.662 54.1352C99.4915 55.9394 97.4329 57.7943 95.2061 59.8262C98.251 59.3611 101.326 59.0294 104.466 58.6233C106.706 56.5549 108.917 54.5918 111.151 52.626L111.152 52.6274Z" fill="#141414"/>
<path fill-rule="evenodd" clip-rule="evenodd" d="M100.228 54.2855C97.2534 54.797 94.4134 55.1961 91.6271 55.6781C89.6971 57.4669 87.6752 59.1925 85.6264 61.067C88.3293 60.6763 91.1199 60.3335 93.9415 59.9049C96.0086 58.0276 98.0744 56.198 100.228 54.2855Z" fill="#141414"/>
<path fill-rule="evenodd" clip-rule="evenodd" d="M107.931 47.6375C104.906 48.17 102.007 48.7546 99.1722 49.2829C97.1333 51.0858 95.1397 52.8156 93.1432 54.551C95.8179 54.0929 98.7215 53.6503 101.768 53.1332C103.78 51.3444 105.879 49.4951 107.932 47.6375H107.931Z" fill="#141414"/>
<path fill-rule="evenodd" clip-rule="evenodd" d="M140.835 49.5303C136.484 50.1303 132.431 50.6882 128.577 51.0886C126.012 53.2962 123.664 55.5614 121.392 57.686C125.133 57.3727 129.118 56.923 133.343 56.4691C135.746 54.1772 138.245 51.8545 140.834 49.5317L140.835 49.5303Z" fill="#141414"/>
<path fill-rule="evenodd" clip-rule="evenodd" d="M23.3979 92.3635C22.4739 92.1092 21.6275 91.8394 20.8193 91.6216C19.5647 92.861 18.2676 94.1256 17.0383 95.5168C17.6628 95.8414 18.399 96.232 19.1761 96.5861C20.5184 95.2329 21.9624 93.7533 23.3979 92.3635Z" fill="#141414"/>
<path fill-rule="evenodd" clip-rule="evenodd" d="M26.8596 93.2375C25.7759 92.9831 24.7713 92.7063 23.8063 92.4562C22.3326 93.9457 20.9253 95.3776 19.5844 96.7378C20.3644 97.165 21.2234 97.5641 22.1616 97.973C23.6876 96.3907 25.2786 94.7719 26.8596 93.2375Z" fill="#141414"/>
<path fill-rule="evenodd" clip-rule="evenodd" d="M30.8823 94.1495C29.6389 93.9289 28.5085 93.6226 27.4192 93.312C25.766 94.9828 24.1751 96.565 22.6887 98.1108C23.706 98.4396 24.7289 98.826 25.9426 99.1323C27.5746 97.4658 29.2715 95.7908 30.8837 94.1495H30.8823Z" fill="#141414"/>
<path fill-rule="evenodd" clip-rule="evenodd" d="M36.0183 95.1739C34.5644 94.8605 33.1528 94.5289 31.7512 94.3069C30.1023 95.9411 28.3743 97.7735 26.7056 99.5033C27.9674 99.8462 29.198 100.348 30.4711 100.845C32.2825 98.8977 34.1956 97.047 36.0183 95.1725V95.1739Z" fill="#141414"/>
<path fill-rule="evenodd" clip-rule="evenodd" d="M41.598 96.0956C39.8982 95.8413 38.2069 95.5869 36.7827 95.2623C34.9232 97.1059 33.0116 98.9805 31.1634 100.913C32.6004 101.381 34.1165 101.787 35.682 102.229C37.5555 100.223 39.528 98.195 41.598 96.0956Z" fill="#141414"/>
<path fill-rule="evenodd" clip-rule="evenodd" d="M47.9618 97.3097C46.0049 97.0076 44.2076 96.6675 42.4923 96.3064C40.3503 98.4788 38.344 100.566 36.4704 102.543C38.0444 102.992 39.7484 103.553 41.4976 104.08C43.6948 101.76 45.7266 99.6283 47.9618 97.3083V97.3097Z" fill="#141414"/>
<path fill-rule="evenodd" clip-rule="evenodd" d="M55.1466 98.8175C52.9212 98.4381 50.8541 98.0095 48.8378 97.6006C46.6817 99.8911 44.5369 102.096 42.3779 104.375C44.226 104.976 46.1999 105.562 48.2218 106.153C50.5079 103.663 52.8887 101.167 55.1466 98.8175Z" fill="#141414"/>
<path fill-rule="evenodd" clip-rule="evenodd" d="M64.236 100.134C61.6814 99.6255 59.2356 99.2447 56.9608 98.9131C54.6266 101.237 52.2585 103.781 49.9385 106.264C52.0904 106.777 54.4133 107.329 56.7305 108.093C59.2822 105.294 61.7111 102.694 64.2374 100.134H64.236Z" fill="#141414"/>
<path fill-rule="evenodd" clip-rule="evenodd" d="M73.5826 101.787C70.7044 101.226 67.8701 100.592 65.3833 100.102C62.8344 102.776 60.2543 105.412 57.8184 108.145C60.2727 108.894 62.8697 109.712 65.704 110.381C68.301 107.496 70.9192 104.697 73.5826 101.788V101.787Z" fill="#141414"/>
<path fill-rule="evenodd" clip-rule="evenodd" d="M84.6924 103.768C81.3593 103.189 78.0531 102.687 75.1975 101.865C72.5087 104.828 69.7606 107.815 67.2102 110.724C70.0446 111.543 73.0216 112.376 76.1739 113.169C79.0563 109.938 81.8157 106.881 84.6939 103.768H84.6924Z" fill="#141414"/>
<path fill-rule="evenodd" clip-rule="evenodd" d="M97.2803 106.427C93.3636 105.619 89.7621 104.896 86.3767 104.129C83.4703 107.319 80.5342 110.506 77.6659 113.829C81.1983 114.806 84.4565 116.024 88.1951 116.978C91.2838 113.43 94.3371 109.897 97.2803 106.427Z" fill="#141414"/>
<path fill-rule="evenodd" clip-rule="evenodd" d="M111.829 109.753C107.249 108.856 103.189 108.009 99.0959 107.119C96.0411 110.623 92.9934 114.189 89.9415 117.675C93.7635 118.937 97.8115 120.172 102.059 121.437C105.419 117.346 108.612 113.5 111.829 109.753Z" fill="#141414"/>
<path fill-rule="evenodd" clip-rule="evenodd" d="M263.262 89.5025C260.378 87.2008 257.555 84.878 254.975 82.7576C250.807 85.1141 246.657 87.309 242.466 89.7976C244.805 92.2356 247.121 94.7917 249.92 97.4067C254.438 94.7397 258.954 92.0881 263.261 89.5025H263.262Z" fill="#141414"/>
<path fill-rule="evenodd" clip-rule="evenodd" d="M121.805 84.7782C120.657 83.6245 119.537 82.551 118.371 81.632C116.748 82.7674 115.056 83.9772 113.386 85.1281C114.423 86.2199 115.403 87.3933 116.455 88.7127C118.252 87.3708 120.045 86.0387 121.806 84.7782H121.805Z" fill="#141414"/>
<path fill-rule="evenodd" clip-rule="evenodd" d="M76.4014 42.1573C75.9549 41.4772 75.5451 40.7689 75.1679 40.0593C73.7069 41.2664 72.147 42.5732 70.6154 43.8463C70.8542 44.6627 71.1919 45.4089 71.5734 46.2085C73.1756 44.8637 74.8047 43.4964 76.3999 42.1573H76.4014Z" fill="#141414"/>
<path fill-rule="evenodd" clip-rule="evenodd" d="M313.579 160.143C309.975 157.326 306.575 154.626 303.273 152.25C298.974 153.571 294.755 155.135 290.328 156.627C293.538 159.224 296.698 162.03 299.945 165.054C304.562 163.32 309.285 161.758 313.581 160.142L313.579 160.143Z" fill="#141414"/>
<path fill-rule="evenodd" clip-rule="evenodd" d="M86.6903 51.2966C86.3357 50.9073 86.0559 50.5279 85.7776 50.1626C84.8281 50.8511 83.8729 51.527 82.9503 52.2015C83.1637 52.6189 83.3841 53.1093 83.6313 53.5196C84.6529 52.7819 85.6363 52.0498 86.6903 51.2952V51.2966Z" fill="#141414"/>
<path fill-rule="evenodd" clip-rule="evenodd" d="M119.408 33.4886C118.552 33.1246 117.741 32.8028 116.938 32.5063C115.728 33.3284 114.518 34.1785 113.28 35.075C113.956 35.4811 114.698 35.8423 115.541 36.3088C116.801 35.3266 118.106 34.409 119.408 33.49V33.4886Z" fill="#141414"/>
<path fill-rule="evenodd" clip-rule="evenodd" d="M301.516 66.8352C298.122 65.4413 294.967 64.2244 291.968 63.0778C288.091 64.6825 284.421 66.2198 280.908 67.8498C283.617 69.2002 286.469 70.5829 289.661 72.2832C293.759 70.3763 297.74 68.4849 301.516 66.8352Z" fill="#141414"/>
<path fill-rule="evenodd" clip-rule="evenodd" d="M105.529 31.3162C105.012 31.0731 104.625 30.7541 104.215 30.5138C103.229 31.1574 102.289 31.8839 101.34 32.5851C101.687 32.8928 102.008 33.2567 102.428 33.5378C103.373 32.8169 104.45 32.0539 105.529 31.3162Z" fill="#141414"/>
<path fill-rule="evenodd" clip-rule="evenodd" d="M83.9535 26.0074C83.6794 25.8078 83.3798 25.6547 83.11 25.4706C82.3993 26.02 81.6207 26.5877 80.9383 27.1118C81.1742 27.3254 81.3791 27.5418 81.5896 27.7892C82.3682 27.2032 83.1764 26.606 83.9535 26.0074Z" fill="#141414"/>
<path fill-rule="evenodd" clip-rule="evenodd" d="M31.8599 80.1157C31.744 79.8206 31.5914 79.5255 31.5123 79.2417C30.9443 79.6295 30.4144 80.0722 29.8464 80.4769C29.8902 80.8197 29.9693 81.1443 30.0485 81.4689C30.6885 81.0151 31.2579 80.5654 31.8599 80.1157Z" fill="#141414"/>
<path fill-rule="evenodd" clip-rule="evenodd" d="M316.186 112.579C313.77 111.425 311.815 110.336 309.752 109.293C306.722 110.149 303.822 110.923 300.931 111.761C302.704 112.83 304.712 114.076 306.837 115.257C310.003 114.397 313.105 113.461 316.186 112.579Z" fill="#141414"/>
<path fill-rule="evenodd" clip-rule="evenodd" d="M138.384 27.9072C137.536 27.657 136.67 27.4856 135.937 27.2299C134.757 27.9985 133.511 28.7967 132.395 29.5372C133.105 29.8491 133.771 30.1147 134.556 30.407C135.73 29.6018 137.104 28.7137 138.384 27.9072Z" fill="#141414"/>
<path fill-rule="evenodd" clip-rule="evenodd" d="M107.144 8.90615C106.606 8.80639 106.067 8.72067 105.539 8.69397C104.652 9.25605 103.807 9.89822 102.957 10.5137C103.46 10.6008 103.966 10.6964 104.474 10.8074C105.381 10.1441 106.262 9.5132 107.144 8.90615Z" fill="#141414"/>
<path fill-rule="evenodd" clip-rule="evenodd" d="M93.7409 32.1831C93.252 32.0286 92.7702 31.919 92.3195 31.7812C91.5607 32.3265 90.7017 32.9251 89.9048 33.4647C90.3583 33.6249 90.7765 33.7738 91.2329 33.9368C92.092 33.341 92.8846 32.7803 93.7423 32.1831H93.7409Z" fill="#141414"/>
<path fill-rule="evenodd" clip-rule="evenodd" d="M11.282 95.1598C11.1436 94.935 11.0404 94.7579 10.9005 94.5331C10.4526 94.8394 10.0062 95.1486 9.59499 95.4366C9.69531 95.6685 9.76031 95.8863 9.90019 96.0746C10.3495 95.7837 10.8355 95.4703 11.282 95.1598Z" fill="#141414"/>
<path fill-rule="evenodd" clip-rule="evenodd" d="M82.2212 44.7204C81.7323 44.5602 81.2746 44.3761 80.8252 44.2581C80.1103 44.7428 79.3247 45.2628 78.5702 45.7462C79.0238 45.9063 79.4773 46.075 79.8998 46.2661C80.65 45.756 81.437 45.2431 82.2212 44.7204Z" fill="#141414"/>
<path fill-rule="evenodd" clip-rule="evenodd" d="M158.279 51.426C157.218 51.1492 156.201 50.8667 155.223 50.6053C153.936 51.2981 152.683 51.9571 151.325 52.6822C152.33 52.9113 153.316 53.2246 154.301 53.5155C155.581 52.8017 156.982 52.0934 158.279 51.426Z" fill="#141414"/>
<path fill-rule="evenodd" clip-rule="evenodd" d="M7.85567 90.302C7.72427 90.0729 7.5533 89.8748 7.42049 89.6978C6.98106 89.9774 6.57555 90.2697 6.16863 90.5971C6.30003 90.7924 6.43426 90.9962 6.56566 91.2238C7.00932 90.9104 7.45157 90.5971 7.85567 90.302Z" fill="#141414"/>
<path fill-rule="evenodd" clip-rule="evenodd" d="M70.3837 55.6935C69.9301 55.5347 69.4723 55.3253 69.0555 55.1581C68.3533 55.626 67.7203 56.0546 67.0506 56.5113C67.432 56.6883 67.8164 56.8879 68.2374 57.1015C68.9411 56.6153 69.6475 56.1909 70.3837 55.6921V55.6935Z" fill="#141414"/>
<path fill-rule="evenodd" clip-rule="evenodd" d="M76.14 37.0929C75.7429 36.9903 75.3544 36.951 74.9602 36.8779C74.3823 37.2714 73.7761 37.7112 73.194 38.0808C73.519 38.151 73.9146 38.2522 74.2452 38.3646C74.8867 37.922 75.4957 37.4948 76.14 37.0943V37.0929Z" fill="#141414"/>
<path fill-rule="evenodd" clip-rule="evenodd" d="M367.532 138.469C364.308 137.5 360.899 136.349 357.452 135.35C354.261 136.033 350.813 136.519 347.572 137.116C350.67 138.063 354.026 139.173 357.126 140.274C360.747 139.665 364.097 139.105 367.532 138.471V138.469Z" fill="#141414"/>
<path fill-rule="evenodd" clip-rule="evenodd" d="M119.74 14.6997C119.03 14.7278 118.39 14.7348 117.749 14.7405C116.999 15.2168 116.216 15.7143 115.408 16.2468C116.045 16.2173 116.629 16.2707 117.272 16.2651C118.08 15.7339 118.89 15.1971 119.739 14.6997H119.74Z" fill="#141414"/>
<path fill-rule="evenodd" clip-rule="evenodd" d="M16.7021 93.1096C16.4845 92.948 16.2669 92.7808 16.1242 92.6262C15.7186 92.8848 15.275 93.1799 14.9048 93.4159C15.0475 93.5888 15.2269 93.7363 15.4064 93.9218C15.8501 93.6225 16.2584 93.3724 16.7021 93.111V93.1096Z" fill="#141414"/>
<path fill-rule="evenodd" clip-rule="evenodd" d="M208.29 75.8861C206.685 75.4954 204.966 75.2622 203.328 74.9081C201.714 75.4688 200.246 75.9592 198.804 76.5353C200.29 76.8079 201.9 77.1915 203.58 77.5751C205.149 76.9962 206.761 76.4397 208.289 75.8861H208.29Z" fill="#141414"/>
<path fill-rule="evenodd" clip-rule="evenodd" d="M202.811 104.999C201.363 104.095 199.93 103.196 198.489 102.413C196.471 103.188 194.414 104.098 192.343 104.977C193.683 105.869 195.016 106.739 196.362 107.753C198.607 106.736 200.734 105.883 202.811 104.998V104.999Z" fill="#141414"/>
<path fill-rule="evenodd" clip-rule="evenodd" d="M12.127 100.477C11.9885 100.079 11.8882 99.6733 11.7865 99.3262C11.2199 99.7323 10.6137 100.182 10.0062 100.65C10.0669 101.056 10.1291 101.517 10.2252 101.933C10.8355 101.454 11.4813 100.966 12.127 100.476V100.477Z" fill="#141414"/>
<path fill-rule="evenodd" clip-rule="evenodd" d="M167.743 69.0484C166.438 68.3037 165.234 67.639 164.116 66.9912C162.398 67.9425 160.608 68.9529 158.819 69.9815C159.944 70.6714 160.949 71.5005 162.202 72.2129C164.104 71.1464 165.919 70.0855 167.743 69.0484Z" fill="#141414"/>
</g>
<defs>
<clipPath id="clip0_303_9325">
<rect width="367.532" height="200" fill="white" transform="translate(-0.000244141)"/>
</clipPath>
</defs>
</svg>
